# xmcd CD database file
#
# Track frame offsets:
#	150
#	17627
#	34949
#	50457
#	69222
#	83473
#	104541
#	122399
#	135810
#	153486
#	169368
#	187931
#	200359
#	215729
#	236592
#	250037
#	263924
#	280721
#	294200
#	309552
#
# Disc length: 4367 seconds
#
# Revision: 0
# Processed by: cddbd v1.5.2PL0 Copyright (c) Steve Scherf et al.
# Submitted via: ACXtractor (MTCDDB.DLL V2003.07.15)
#
DISCID=0a110d14
DTITLE=Paul McCloud - Up to my Heart and Special Moments
DYEAR=1998
DGENRE=Rock
TTITLE0=Sing Australia
TTITLE1=When I Dream
TTITLE2=Veil of White Lace
TTITLE3=Working Man
TTITLE4=Baby Blue
TTITLE5=Rodeo Wind
TTITLE6=Desire
TTITLE7=Rose of My Heart
TTITLE8=There are Mountains
TTITLE9=Mirani Blue
TTITLE10=One more Song
TTITLE11=If we Never Meet Again
TTITLE12=Through Danny's Eyes
TTITLE13=Orphan of the Road
TTITLE14=In It up to my Heart
TTITLE15=When she Loves You
TTITLE16=Marching Diggers
TTITLE17=God Dwells Within
TTITLE18=Veil of White Lace 2
TTITLE19=Annie's Story
EXTD=ID3G:  17 YEAR: 1998
EXTT0=
EXTT1=
EXTT2=
EXTT3=
EXTT4=
EXTT5=
EXTT6=
EXTT7=
EXTT8=
EXTT9=
EXTT10=
EXTT11=
EXTT12=
EXTT13=
EXTT14=
EXTT15=
EXTT16=
EXTT17=
EXTT18=
EXTT19=
PLAYORDER=
